<?xml version="1.0" encoding="utf-8"?>
<!-- Generator: Adobe Illustrator 23.0.4, SVG Export Plug-In . SVG Version: 6.00 Build 0)  -->
<svg version="1.1" id="Layer_1" xmlns="http://www.w3.org/2000/svg" xmlns:xlink="http://www.w3.org/1999/xlink" x="0px" y="0px"
	 viewBox="0 0 500 432.7" style="enable-background:new 0 0 500 432.7;" xml:space="preserve">
<style type="text/css">
	.st0{fill:#C8C8C8;}
	.st1{fill:#222222;}
	.st2{fill:#B12028;}
</style>
<g>
	<rect x="104.2" y="0.1" class="st0" width="265.9" height="432"/>
	<path class="st1" d="M166.3,417.1l-2.1-181.5c0.5-20,1.2-36.4,2.7-55.9l-0.6-0.8l-104.4,83l-22.1-46.7L219,72.6l0.1,49.1l1.3,149.1
		c-0.4,19.3-0.7,37.9-2.4,56.3l0.6,0.8l151.3-123.5l2.3,63.1L168.1,432.7L166.3,417.1z"/>
	<polygon class="st2" points="467,332.9 467,399.7 400.2,399.7 400.2,432.7 467,432.7 500,432.7 500,399.7 500,332.9 	"/>
	<polygon class="st2" points="467,99.9 467,33 400.2,33 400.2,0 467,0 500,0 500,33 500,99.9 	"/>
	<rect class="st2" width="67.3" height="432"/>
</g>
</svg>
